<svg width="141" height="140" viewBox="0 0 141 140" fill="none" xmlns="http://www.w3.org/2000/svg">
<path d="M-2 70V-2H70H142V70V142H70H-2V70ZM71.5965 128.664C71.8783 128.304 72.1913 127.897 72.2696 127.757C72.7391 126.99 73.5844 125.91 74.0383 125.503C74.3044 125.252 74.5391 124.955 74.5391 124.845C74.5391 124.657 76.0104 122.873 77.8261 120.87C79.0157 119.539 79.36 119.023 80.0956 117.504C81.0661 115.454 81.3009 114.515 81.2383 112.652L81.1913 111.087L80.5652 111.04C79.8452 110.977 78.3113 110.289 77.1374 109.506C76.3391 108.974 76.3391 108.974 76.2609 109.318C76.2139 109.522 76.0261 109.694 75.8383 109.725C75.6035 109.757 75.4939 109.663 75.4313 109.334C75.3061 108.755 74.4139 107.409 74.1322 107.409C73.8035 107.409 73.8661 106.97 74.3044 106.407C74.5235 106.125 74.6957 105.75 74.6957 105.593C74.6957 105.155 75.1339 104.591 75.4626 104.591C75.713 104.591 75.7443 104.732 75.7443 105.718C75.7443 106.845 75.7443 106.845 76.3861 107.409C76.7461 107.706 77.6383 108.332 78.3739 108.802C80.0956 109.882 80.9096 109.976 83.2104 109.381C84.0557 109.162 84.9009 108.974 85.1043 108.974C85.6209 108.974 88.5322 108.238 89.8157 107.784L90.927 107.377L90.4574 106.501C90.0817 105.812 89.9252 105.264 89.7843 104.043C89.6122 102.697 89.5026 102.306 89.033 101.508C88.2504 100.177 88.2817 99.8174 89.3304 98.4087C89.8 97.7826 90.1913 97.1722 90.1913 97.0626C90.1913 96.8122 90.6609 96.2957 90.8957 96.2957C91.0991 96.2957 91.7565 95.6226 92.1165 95.0435C92.3357 94.6835 92.3357 94.5739 92.1165 93.7913C91.7096 92.3513 91.7096 92.007 92.0539 91.3183C92.3983 90.6452 92.4922 89.5652 92.2261 89.5652C92.1322 89.5652 92.0226 89.6591 91.9757 89.7843C91.9287 89.9252 91.5061 90.0348 90.7704 90.0974C88.2035 90.3478 84.1183 91.0052 83.367 91.287C82.3496 91.6626 81.0035 92.4765 78.8748 94.0104C76.9652 95.3878 76.6365 95.7478 76.4957 96.6244C76.3704 97.313 75.9948 97.5948 75.76 97.1878C75.6817 97.0313 75.5409 96.9217 75.4313 96.9217C75.3374 96.9217 74.9617 96.6244 74.6017 96.28C73.9757 95.6696 73.913 95.6383 73.4278 95.8104C73.1617 95.9044 72.7235 95.9826 72.473 95.9826C71.8157 95.9826 71.9565 95.5443 72.7078 95.153C73.0365 94.9809 73.3496 94.7461 73.3965 94.6365C73.4904 94.3861 74.0696 94.3391 74.0696 94.5739C74.0696 94.6678 74.2417 94.7304 74.4452 94.7304C74.6644 94.7304 74.8835 94.8087 74.9304 94.887C75.1026 95.1687 75.7757 95.0591 76.0104 94.6991C76.1357 94.4957 76.6365 94.0574 77.1217 93.713C78.7965 92.5391 79.673 91.7409 79.7826 91.3339C79.8296 91.1148 79.8452 90.9113 79.8139 90.88C79.7826 90.8487 79.4696 91.0209 79.1096 91.287C78.7496 91.5374 78.28 91.7565 78.0765 91.7565C77.7791 91.7565 77.6852 91.647 77.5913 91.193C77.5443 90.88 77.5287 90.5983 77.5757 90.5513C77.607 90.5043 78.5774 90.0348 79.7357 89.487C80.8783 88.9391 82.2087 88.2817 82.6783 88.0313C83.1478 87.7652 83.9304 87.3426 84.4 87.0922C85.5739 86.4504 86.9983 85.6052 87.8435 85.0261C88.2348 84.76 89.1426 84.1496 89.8783 83.6644C90.6139 83.1791 91.5217 82.5374 91.913 82.2243C92.8835 81.473 94.9809 79.3287 95.9044 78.1548C96.3113 77.6383 96.7339 77.2 96.8435 77.2C96.953 77.2 97.1565 77.0591 97.313 76.887C97.7513 76.4017 98.1739 76.48 98.1739 77.0435C98.1739 77.967 99.16 78.0609 101.508 77.3409C103.715 76.6522 104.607 76.2609 107.33 74.727C108.019 74.3357 108.833 73.8974 109.13 73.7252C111.103 72.6765 114.28 69.4052 115.595 67.0887C116.863 64.8348 117.692 62.3304 117.99 59.8104C118.068 59.1687 117.99 58.527 117.739 57.3843C117.348 55.647 117.144 55.1774 116.377 54.2539C115.595 53.3148 115.078 53.08 113.654 52.9861L112.417 52.8922V53.4713C112.417 54.3009 112.621 54.567 113.513 54.9583L114.296 55.3026V56.2261C114.296 56.7426 114.233 57.1652 114.155 57.1652C114.077 57.1652 113.983 57.3217 113.951 57.5096C113.92 57.6974 113.67 57.9791 113.357 58.1513C112.48 58.6209 111.807 59.3722 111.337 60.3739C110.774 61.5791 110.617 62.487 110.93 62.8939C111.212 63.2696 111.228 63.5826 110.946 63.5826C110.821 63.5826 110.367 63.9739 109.944 64.4748C109.365 65.1165 109.099 65.32 108.896 65.2417C108.677 65.1635 108.645 65.0226 108.723 64.553C108.786 64.24 108.817 63.6452 108.817 63.2539C108.802 62.847 108.943 61.8139 109.13 60.953C109.303 60.0922 109.443 59.3565 109.443 59.3096C109.443 59.2783 109.271 59.2783 109.052 59.3252C108.442 59.4348 108.551 58.84 109.287 57.9009C109.647 57.4626 109.882 57.0087 109.835 56.8835C109.788 56.7739 109.757 56.2261 109.757 55.6783C109.757 54.7704 109.725 54.6922 109.443 54.7704C109.005 54.88 108.896 54.473 109.099 53.5652C109.381 52.36 109.005 51.1861 108.066 50.3252C107.283 49.6052 107.002 49.48 107.143 49.9339C107.503 51.0765 107.722 52 107.722 52.4383C107.722 52.8922 107.675 52.9391 107.268 52.9391C106.845 52.9391 106.751 52.8296 106.031 51.3113C105.609 50.4191 105.17 49.6522 105.077 49.5896C104.967 49.527 104.357 49.3391 103.683 49.1826C101.023 48.5565 99.4261 48.4 94.3391 48.3217C91.5844 48.2748 88.5478 48.2122 87.5774 48.1652L85.8243 48.087L85.7461 48.7444C85.3548 52.1096 85.3548 52.5322 85.6209 52.8452C86.153 53.44 88.1252 54.7078 89.6904 55.4591C90.88 56.0383 91.287 56.3043 91.287 56.5235C91.287 56.68 91.1617 56.8678 91.0209 56.9304C90.8643 57.0087 89.5496 57.087 88.0783 57.1339C84.9635 57.2122 82.6313 56.9461 79.9391 56.1948C77.8261 55.6157 76.4643 55.3026 75.9635 55.287C75.6035 55.287 75.6035 55.3026 75.713 56.3357C75.7757 56.8991 75.9322 57.6191 76.073 57.9009C76.3078 58.4017 76.3078 58.5113 76.0417 59.4817C75.8852 60.0609 75.713 61.2817 75.6817 62.2209C75.6191 63.5043 75.5409 63.8957 75.3843 63.8957C75.1026 63.8957 74.8522 63.2539 74.367 61.2504C74.2417 60.7809 74.0539 60.3896 73.913 60.3426C73.7878 60.2957 73.4278 60.1391 73.1304 59.9826C71.8783 59.3409 68.1217 59.1843 65.8052 59.6852C64.7565 59.9044 64.2557 60.5461 64.0365 61.9078C63.833 63.2226 63.4417 64.5687 63.2226 64.7096C63.113 64.7722 62.9096 64.8348 62.7687 64.8348C62.393 64.8348 62.4087 64.4122 62.8 62.7217C63.2852 60.6243 63.16 59.5443 62.3461 58.8243C61.9078 58.433 61.9235 58.0261 62.4243 57.4313C62.8 56.993 62.8313 56.8522 62.7374 56.1165C62.5965 54.88 61.767 52.4539 61.2504 51.7339C61.0157 51.4052 60.3896 50.7791 59.8887 50.3565C59.3722 49.9339 58.5739 49.2296 58.1043 48.7757C56.9461 47.68 56.1948 47.3043 55.1774 47.3043C54.7235 47.3043 54.3478 47.3826 54.3478 47.4609C54.3478 47.7426 55.7722 50.4817 56.4139 51.4365C56.7583 51.9374 57.353 52.9391 57.713 53.6591C58.0887 54.3791 58.5113 55.1304 58.6365 55.3183C58.9339 55.7252 58.9652 56.2261 58.7148 56.2261C58.4174 56.2261 55.1774 53.2522 52.2974 50.3565C50.7948 48.8539 49.4643 47.5704 49.3235 47.5391C49.1826 47.4922 47.1322 47.5548 44.7843 47.6957C42.4209 47.8209 39.6348 47.9304 38.5704 47.9304C37.5061 47.9304 36.52 47.993 36.3635 48.087C36.1287 48.2122 36.0661 48.5409 35.9722 50.1061C35.9252 51.1548 35.8313 52.1096 35.7843 52.2348C35.6748 52.5009 35.3148 52.5478 35.1583 52.2974C35.08 52.1722 34.313 48.5252 34.313 48.2591C34.313 48.1496 31.6991 48.353 31.4957 48.4783C31.3704 48.5565 31.3235 49.433 31.3548 51.6713L31.4017 54.7391H31.0261C30.5722 54.7391 30.0713 53.9565 29.6957 52.673C29.5548 52.2191 29.367 51.8435 29.273 51.8435C29.007 51.8435 29.2574 54.2852 29.6174 55.0991C29.7896 55.4904 29.9304 55.9287 29.9304 56.0852C29.9304 56.4139 29.5391 56.4922 29.367 56.2104C29.2261 55.9757 28.9913 56.3513 28.9913 56.8209C28.9913 57.0713 28.8974 57.1652 28.647 57.1652C28.4435 57.1652 28.0522 57.4313 27.7235 57.7913C27.3948 58.1357 27.0504 58.4174 26.9565 58.4174C26.8626 58.4174 26.6904 58.1826 26.5652 57.8852C26.3304 57.3217 25.7043 56.7739 24.7809 56.3043C24.327 56.0852 24.28 55.9913 24.3426 55.6C24.4052 55.3496 24.3426 55.0522 24.2174 54.88C24.0922 54.7078 23.9826 54.473 23.9826 54.3322C23.9826 53.9565 24.7339 53.033 25.1252 52.9235C25.407 52.8609 25.3287 52.7983 24.7026 52.5791C23.6539 52.2191 23.2939 52.2348 22.1513 52.72C21.2904 53.08 21.1026 53.2522 20.5548 54.0974C19.3652 55.9287 19.1461 58.2139 19.8504 61.2817C20.4296 63.7861 21.6348 66.1809 23.4348 68.3252C25.36 70.6417 27.6922 72.4574 30.2435 73.6313C32.2939 74.5704 36.2539 75.6035 37.96 75.6191C38.5078 75.6348 38.5391 75.6035 38.5391 75.1652C38.5391 74.8835 38.6174 74.6957 38.7426 74.6957C39.0087 74.6957 39.6348 75.2748 39.6348 75.5252C39.6504 76.073 44.0174 81.0504 45.3478 82.0209C46.9913 83.2261 48.2278 84.0557 49.12 84.5565C50.6226 85.3861 53.5496 86.8261 54.9739 87.4522C55.7096 87.7652 56.7583 88.2504 57.3217 88.5165C57.8852 88.7826 59.0122 89.2522 59.8261 89.5809C61.3757 90.1757 61.7043 90.52 61.1409 90.927C60.9217 91.0835 60.9217 91.1304 61.0939 91.1304C61.2191 91.1304 61.5009 91.2557 61.7043 91.4122C61.9235 91.553 62.44 91.8191 62.8783 92.007C63.9113 92.4296 63.9583 92.8678 62.9878 93.0713C62.393 93.1965 62.1896 93.1496 61.0313 92.6174C60.327 92.2887 59.4974 91.8661 59.2 91.6783C58.9026 91.4904 58.3391 91.1617 57.9478 90.9426C57.5565 90.7235 56.8209 90.3165 56.3043 90.0348C55.7878 89.7374 55.193 89.3774 54.9896 89.2209C54.7861 89.0643 54.5513 88.9391 54.4887 88.9391C54.4104 88.9391 54.9583 90.113 55.6783 91.553C56.4139 92.993 56.9774 94.2609 56.9461 94.3704C56.8991 94.48 56.6643 94.5739 56.4296 94.5739C56.1948 94.5739 55.3026 94.7461 54.4574 94.9652C53.6278 95.1687 52.6104 95.3878 52.1878 95.4348C51.0765 95.5913 50.4348 95.8261 50.4348 96.0922C50.4348 96.2174 50.7322 96.7965 51.1078 97.36C51.4835 97.9391 52.0939 98.9722 52.4696 99.6609C52.8452 100.35 53.6122 101.649 54.1757 102.557C55.647 104.951 55.8348 105.765 55.3652 107.957C55.0678 109.397 55.0678 111.713 55.3652 112.574C55.6626 113.419 55.6626 114.233 55.3652 115.063C55.1774 115.626 55.1774 115.736 55.3652 115.798C55.8348 115.986 60.2017 114.358 62.3617 113.2C63.3791 112.652 64.3652 112.84 64.3652 113.576C64.3652 113.92 65.1791 116.628 66.04 119.148C66.5565 120.619 67.6052 123.155 68.4348 124.861C68.607 125.205 68.7791 125.957 68.8417 126.536C68.9357 127.506 68.9983 127.647 69.7183 128.445C70.1409 128.93 70.6261 129.322 70.7826 129.322C70.9391 129.322 71.2991 129.024 71.5965 128.664ZM72.8174 56.5548C72.7391 56.3826 72.6609 56.1322 72.6609 56.007C72.6609 55.7096 73.2243 55.6626 73.3339 55.96C73.3809 56.0539 73.4278 55.6783 73.4278 55.1148L73.4435 54.0974L72.7861 53.7843C69.3113 52.1252 66.4313 50.0435 63.2226 46.8661L62.1583 45.8174L63.3165 47.3983C65.0383 49.7148 68.9513 53.1113 71.2522 54.2696C72.0348 54.6609 72.5043 55.1304 72.5043 55.5374C72.5043 56.0696 72.16 56.0852 70.407 55.6783C68.7009 55.2713 66.6348 54.5043 65.4609 53.8157C65.0696 53.5965 64.6939 53.4087 64.6313 53.4087C64.5687 53.4087 64.5217 53.7374 64.553 54.1443C64.6 54.8174 64.6313 54.8957 64.9913 54.8957C65.4139 54.8957 65.4922 55.2243 65.2574 56.0852L65.1478 56.4922L67.073 56.4296C68.2157 56.3983 69.64 56.4609 70.6261 56.5861C73.0052 56.9148 73.0209 56.9148 72.8174 56.5548ZM83.0539 49.5896C82.913 48.8539 82.7096 48.1652 82.6 48.087C82.3652 47.8835 79.7043 47.68 79.7043 47.8522C79.7043 48.0713 83.1322 51.1235 83.2574 50.9983C83.2887 50.967 83.2104 50.3252 83.0539 49.5896ZM109.96 45.9739C109.929 45.1287 109.741 44.6122 109.334 44.2052C109.224 44.0957 109.13 43.8922 109.13 43.767C109.13 43.6417 109.068 43.4226 108.99 43.2661C108.911 43.1252 108.755 42.6713 108.661 42.28C108.52 41.7478 108.27 41.3409 107.706 40.793C107.174 40.2609 106.939 39.9165 106.939 39.6191C106.939 39.2748 106.845 39.1809 106.454 39.1026C106.031 39.0243 105.859 39.1026 105.28 39.6348C104.732 40.1513 104.482 40.2609 103.981 40.2609C103.433 40.2609 103.261 40.1513 102.478 39.3687L101.586 38.4609L102.447 39.6348C102.917 40.2765 103.903 42.0139 104.638 43.4852C105.906 46.0052 106 46.1617 106.61 46.4435C107.362 46.7722 107.55 46.6939 107.19 46.1774C106.923 45.8174 106.877 45.2852 107.033 44.6904C107.158 44.2052 107.424 44.2365 107.957 44.8C108.207 45.0661 108.536 45.2696 108.677 45.2696C108.88 45.2696 109.021 45.473 109.146 45.9426C109.24 46.3026 109.397 46.7252 109.475 46.8974C109.741 47.3826 109.991 46.913 109.96 45.9739ZM43.1565 46.6783C43.2191 46.5843 43.3757 46.5217 43.5165 46.5374C44.1113 46.5843 44.3304 46.4904 44.8157 45.9896C45.207 45.567 45.5513 45.3948 46.4591 45.1757C47.1009 45.0348 47.6957 44.8157 47.7896 44.7061C47.9304 44.5339 47.9148 44.487 47.7583 44.487C47.5235 44.487 46.8974 43.6261 46.553 42.8435C46.4435 42.593 46.2557 42.28 46.1461 42.1391C45.7704 41.7165 44.3617 38.4765 43.8765 36.9583C43.5009 35.8157 42.7652 31.8713 42.593 30.1809C42.5617 29.8522 42.3113 31.2609 42.3113 31.84C42.2957 32.153 42.2174 32.4348 42.1235 32.4661C42.0296 32.4974 41.92 32.8574 41.873 33.2643C41.8261 33.7026 41.7009 34 41.5913 34C41.1217 34 41.0904 32.56 41.4974 29.7739C41.6539 28.6939 41.7791 27.8017 41.7478 27.7704C41.7322 27.7391 41.5757 28.0678 41.4191 28.4748C41.247 28.8817 40.8087 29.8209 40.433 30.5565C39.7757 31.84 39.4939 32.5443 38.8209 34.5478C38.6487 35.0644 38.2261 36.3009 37.8817 37.287C37.3496 38.8522 36.207 44.4087 36.3948 44.5809C36.4261 44.6122 37.1148 44.6904 37.9287 44.7687C39.2904 44.8939 39.447 44.9565 39.9322 45.4104C40.9965 46.4122 42.8748 47.1322 43.1565 46.6783ZM27.8643 45.3791C28.0835 44.6591 28.24 38.8052 28.0209 39.3217C27.7235 40.0417 27.4261 42.5148 27.4261 44.2991C27.4261 46.0678 27.567 46.3965 27.8643 45.3791ZM101.743 45.3948C100.882 44.1739 95.9513 39.5878 94.5739 38.727C94.3548 38.5861 93.8696 38.2261 93.4783 37.913C92.1791 36.8643 86.7322 33.3739 86.4035 33.3739C86.2626 33.3739 88.3757 36.7391 89.0643 37.6C92.0226 41.2783 95.4348 44.5809 97 45.2539C97.7043 45.5513 99.4261 45.7861 101.586 45.88L102.103 45.8957L101.743 45.3948ZM33.233 44.9565C33.5148 44.9565 33.5304 44.7843 33.5304 41.9983C33.5304 39.9478 33.6087 38.68 33.7652 37.8974C34.0626 36.52 33.953 36.2852 33.6087 37.5374C33.4835 38.0539 33.2017 39.0243 32.9826 39.713C32.4191 41.6383 31.7774 44.6278 31.8713 44.9096C31.9496 45.0817 32.0904 45.1287 32.4504 45.0504C32.7322 45.0035 33.0765 44.9565 33.233 44.9565ZM90.3478 44.487C88.4696 43.2661 85.5896 40.8557 84.7287 39.7913C84.4626 39.447 84.1652 39.1652 84.087 39.1652C84.0087 39.1652 84.087 39.5409 84.2591 39.9948C84.447 40.433 84.7443 41.3409 84.9478 41.9826C85.5583 44.0017 85.5426 43.9704 87.0452 44.4243C87.7809 44.6435 88.4696 44.847 88.5478 44.8783C88.6417 44.9096 89.2365 44.9409 89.8783 44.9409L91.0522 44.9565L90.3478 44.487ZM80.9565 44.5339C80.8313 44.487 80.2052 44.2052 79.5791 43.9235C78.953 43.6261 78.3896 43.3913 78.3113 43.3913C78.233 43.3913 77.247 42.8278 76.12 42.1548C74.993 41.4661 74.0696 40.9339 74.0696 40.9652C74.0696 41.0748 75.2122 42.7183 75.7443 43.36C76.6209 44.4243 77.1217 44.6122 79.313 44.6122C80.3461 44.6122 81.0817 44.5809 80.9565 44.5339ZM54.0348 44.1426C54.0348 44.033 53.847 43.767 53.6122 43.5165C53.393 43.2817 53.0487 42.8435 52.8765 42.5461C52.1878 41.4348 50.7009 39.3217 50.6383 39.3843C50.56 39.447 51.64 42.2017 52.2348 43.5165C52.6261 44.3148 52.6261 44.3304 53.3304 44.3304C53.7687 44.3304 54.0348 44.2678 54.0348 44.1426ZM78.593 40.2296C78.3739 39.807 76.1357 37.0365 74.7896 35.5026C73.1774 33.687 68.6696 29.9304 68.0904 29.9304C67.6209 29.9304 68.8104 31.7148 70.8452 34.0626C72.3635 35.8313 74.007 37.3339 75.6191 38.4139C75.8383 38.5704 76.6209 39.1183 77.3565 39.6348C78.0922 40.1357 78.7026 40.5583 78.7339 40.5739C78.7496 40.5739 78.687 40.4174 78.593 40.2296Z" fill="#050608"/>
<path d="M64.0522 113.263C63.9426 113.137 63.6922 113.043 63.4887 113.043C62.9252 113.043 63.0348 112.809 63.7861 112.37C64.7565 111.791 66.3843 110.132 67.167 108.88C67.5583 108.285 68.0278 107.55 68.2313 107.237C68.5443 106.751 68.5913 106.501 68.5913 105.03C68.5913 104.106 68.5443 103.323 68.4661 103.292C68.4035 103.245 67.6835 103.59 66.8696 104.059C63.3009 106.078 62.487 106.376 62.487 105.656C62.487 105.374 62.6904 105.186 63.3478 104.857C64.7722 104.106 67.4643 102.29 67.6365 101.962C67.8557 101.555 67.8557 99.4261 67.6522 98.8939C67.5739 98.6748 67.4174 98.4869 67.3078 98.4869C67.1983 98.4869 66.5096 98.1269 65.7739 97.7043C62.9252 96.0296 60.2174 95.56 54.0974 95.7165C50.4035 95.7948 49.5896 95.6696 51.7026 95.3409C52.2504 95.2626 53.4087 95.0122 54.2696 94.8087C55.1304 94.6052 56.0539 94.4174 56.3043 94.3861C56.6017 94.3548 56.7583 94.2609 56.727 94.1356C56.68 93.8852 57.5096 94.0261 58.0261 94.3391C58.1983 94.4643 59.2313 94.6209 60.327 94.7304C62.5496 94.9182 63.9113 95.3252 66.447 96.5148L67.9809 97.2504L68.873 96.2956C69.5461 95.5913 69.8748 95.3565 70.2035 95.3565C70.5478 95.3565 70.6261 95.4348 70.6261 95.7322C70.6261 95.9356 70.5165 96.2017 70.3757 96.3113C70.2348 96.4209 69.8435 96.9374 69.4991 97.4382L68.873 98.3617L69.0609 99.88C69.1548 100.71 69.4522 102.369 69.7026 103.558C69.953 104.763 70.1565 105.75 70.1565 105.781C70.1565 105.812 70.4696 106.047 70.8609 106.313C71.5965 106.83 71.9878 106.845 72.9739 106.454C73.6783 106.157 74.3357 104.873 74.7739 102.979C75.3843 100.381 75.5096 99.3635 75.447 98.0017C75.4157 97.0626 75.447 96.7652 75.6035 96.7652C75.713 96.7652 75.8383 96.8748 75.8852 97C75.9635 97.1878 76.0417 97.2035 76.1983 97.0626C76.3861 96.9061 76.4174 97.2191 76.4174 99.0661V101.257L77.873 101.351C78.6557 101.398 79.7043 101.57 80.1739 101.727C80.9096 101.962 81.0348 102.071 81.0348 102.4C81.0348 102.776 81.0035 102.791 80.2522 102.729C79.8296 102.697 78.7339 102.65 77.8261 102.65L76.1826 102.635L75.9635 103.762C75.8226 104.544 75.6974 104.857 75.5565 104.81C75.3061 104.717 74.8522 105.327 74.8522 105.75C74.8522 105.906 74.68 106.282 74.4452 106.579C74.2261 106.861 74.0852 107.158 74.1478 107.237C74.273 107.456 72.6139 108.504 72.1443 108.504C71.9252 108.504 71.4087 108.348 70.9704 108.144C69.9374 107.659 69.1391 107.737 68.8261 108.348C67.9652 110.007 66.3061 112.01 64.9757 112.965C64.3496 113.419 64.2087 113.466 64.0522 113.263Z" fill="black"/>
<path d="M89.7217 105.092C89.7217 105.014 89.3774 104.403 88.9704 103.715C88.5635 103.042 88.0782 102.134 87.8904 101.696C87.7182 101.273 87.4209 100.85 87.233 100.757C86.5913 100.459 86.8261 99.5982 88.0156 97.8295C88.36 97.3443 89.1739 95.8417 89.8313 94.4956C90.5043 93.1339 91.2556 91.6469 91.4904 91.1617C91.8035 90.5513 91.8817 90.2695 91.7565 90.1913C91.4748 90.0191 91.8504 89.4087 92.2261 89.4087C92.7113 89.4087 92.6956 90.52 92.1948 91.5061C91.8661 92.1322 91.8817 92.1791 92.3043 93.713C92.4765 94.3704 92.5078 94.7461 92.3982 94.9809C92.1791 95.4817 91.2869 96.4522 91.0678 96.4522C90.8174 96.4522 90.3478 96.953 90.3478 97.2191C90.3478 97.3287 89.9565 97.9391 89.4869 98.5652C89.0174 99.2069 88.6261 99.88 88.6261 100.068C88.6261 100.24 88.8609 100.788 89.1426 101.289C89.753 102.322 89.8626 102.666 89.9878 104.137C90.0348 104.873 90.0191 105.217 89.8939 105.217C89.8 105.217 89.7217 105.155 89.7217 105.092Z" fill="black"/>
<path d="M71.6435 96.5304C70.9078 95.7635 70.7513 95.3565 71.2209 95.3565C71.3617 95.3565 71.5652 95.2939 71.6748 95.2313C71.7687 95.1687 70.8922 95.1374 69.7026 95.1687C68.0904 95.2156 67.4174 95.1687 66.9478 94.9965C66.0087 94.6365 63.5826 93.6974 63.0035 93.4626C62.3617 93.1965 62.3461 93.0243 62.9565 92.8991C63.2226 92.8522 63.473 92.7582 63.5043 92.6956C63.5513 92.6174 62.8939 92.2261 62.0643 91.8191C61.2191 91.4122 60.4991 91.0522 60.4678 91.0365C60.3583 90.9426 60.5617 90.8017 60.8748 90.7548C61.0313 90.7235 61.1409 90.5826 61.1409 90.4417C61.1096 90.113 61.1565 90.113 62.5183 90.5982C63.1443 90.833 64.3652 91.2713 65.2261 91.5843L66.7913 92.1322H69.4522C72.4887 92.1322 73.287 92.0069 75.6661 91.1304C77.5443 90.4417 77.8574 90.3791 77.7322 90.7391C77.6696 90.8643 77.7165 90.9739 77.8261 90.9739C77.9356 90.9739 77.967 91.0991 77.9043 91.2869C77.8261 91.5374 77.873 91.6 78.1235 91.6C78.6087 91.6 78.5304 91.8035 77.9043 92.1635C76.8556 92.7739 74.5548 94.4956 74.5391 94.6991C74.5391 94.793 74.3983 94.8869 74.2417 94.8869C74.0696 94.8869 73.913 94.793 73.8661 94.6991C73.8191 94.5582 73.7096 94.6052 73.5217 94.8556C73.3809 95.0435 73.1774 95.2 73.0835 95.2C72.7861 95.2156 72.0661 95.8104 72.3478 95.8261C72.6609 95.8417 73.1617 96.5461 73.0991 96.8904C72.9896 97.4382 72.3791 97.2817 71.6435 96.5304ZM72.5826 93.7756C73.6939 93.6191 74.6174 93.2591 75.3217 92.6956C75.6817 92.4139 75.6191 92.4139 74.5704 92.7739C72.88 93.3374 71.2209 93.5252 68.7009 93.4469C67.48 93.4 66.3374 93.3217 66.1652 93.2591L65.8522 93.1339L66.1652 93.3374C67.0574 93.9165 70.1878 94.1356 72.5826 93.7756Z" fill="black"/>
<path d="M101.617 74.0069C101.617 73.8817 101.696 73.7252 101.774 73.6782C101.868 73.6313 101.93 73.4591 101.93 73.3026C101.93 73.0991 102.15 72.9426 102.682 72.7861C103.339 72.5669 103.417 72.5043 103.37 72.1287C103.323 71.753 103.355 71.7217 103.934 71.7217C104.529 71.7217 105.061 71.3774 105.061 70.9704C105.061 70.8765 105.452 70.2191 105.937 69.4991C107.064 67.8243 107.315 67.3235 107.894 65.6017C108.144 64.8348 108.41 64.0835 108.457 63.9582C108.536 63.7391 108.473 63.7548 107.957 63.9582C107.143 64.3026 106.783 64.2869 106.783 63.8956C106.783 63.7235 106.861 63.5826 106.939 63.5826C107.033 63.5826 107.096 63.4574 107.096 63.2852C107.096 62.9252 108.426 62.0174 108.958 62.0174C109.099 62.0174 109.052 63.8956 108.911 64.4122C108.661 65.2417 109.037 65.1791 109.819 64.2869C110.226 63.8174 110.664 63.4261 110.79 63.4261C110.977 63.4261 110.977 63.3635 110.774 63.0504C110.43 62.5339 110.586 61.4539 111.165 60.2174C111.65 59.2156 112.323 58.4643 113.2 57.9948C113.513 57.8226 113.763 57.5408 113.795 57.353C113.826 57.1652 113.92 57.0087 113.998 57.0087C114.077 57.0087 114.139 56.8052 114.139 56.5391C114.139 55.9287 114.343 55.9443 114.53 56.5704C114.64 56.9148 114.953 57.2435 115.595 57.6817C116.91 58.5739 116.737 59.1217 115.266 58.7148C114.859 58.6052 114.499 58.5426 114.452 58.5895C114.421 58.6208 114.374 59.6069 114.374 60.7652C114.358 62.7374 114.327 62.9408 113.889 63.9739C112.48 67.2922 109.96 69.953 106.751 71.4869C105.437 72.1287 104.466 72.7235 103.918 73.2556C103.104 74.0382 101.617 74.5235 101.617 74.0069ZM108.723 68.7322C111.197 66.76 113.137 63.4574 113.31 60.9061C113.435 59.2469 113.294 59.0748 112.449 59.7948C111.901 60.28 111.744 60.5461 111.541 61.36C111.322 62.2052 111.322 62.4556 111.494 63.0817C111.666 63.6765 111.65 63.8174 111.478 63.8643C111.071 64.0052 110.367 64.913 109.647 66.2435C109.256 66.9791 108.645 67.9808 108.317 68.4817C107.988 68.9669 107.753 69.3739 107.816 69.3739C107.863 69.3739 108.27 69.0922 108.723 68.7322Z" fill="black"/>
<path d="M32.513 70C32.3565 69.8278 32.0748 69.6869 31.8869 69.6869C31.6991 69.6869 31.4174 69.5461 31.2609 69.3739C31.12 69.2174 30.5878 68.9982 30.1026 68.8887C28.8817 68.6226 26.9409 67.5895 25.9391 66.6817C25.1252 65.9461 24.3113 64.6782 23.7791 63.3165C23.3252 62.1426 22.8869 59.5443 22.8869 57.9322V56.3826L22.0104 56.7739C20.9304 57.2435 20.3826 57.2904 20.3826 56.8835C20.3826 56.3356 21.04 55.9443 22.6522 55.5374L23.4348 55.3339V54.6609C23.4348 54.0817 23.513 53.9409 24.0139 53.5339C24.7652 52.9078 25.0313 53.0174 24.5148 53.753C24.1235 54.3009 24.1235 54.3322 24.3739 54.7235C24.5461 54.9739 24.6087 55.2713 24.5461 55.5217C24.4678 55.8348 24.5304 55.9443 24.953 56.1635C25.8765 56.6174 26.4869 57.1652 26.7217 57.7443L26.9565 58.2922L27.5513 57.6504C27.8956 57.2748 28.2869 57.0087 28.4904 57.0087C28.7565 57.0087 28.8348 56.9148 28.8348 56.633C28.8348 56.4139 28.8974 56.2104 28.9756 56.1635C29.0539 56.1165 29.1635 56.6487 29.2261 57.3687C29.3513 58.9495 29.5861 59.513 30.2748 60.0452C30.5722 60.2643 31.1513 60.9061 31.5739 61.4695C31.9809 62.033 32.3565 62.4713 32.3878 62.4243C32.4191 62.393 32.1374 61.7356 31.7461 60.953C31.0104 59.4974 30.8539 58.8869 31.2452 58.8869C31.4643 58.8869 33.3739 62.1739 33.6087 62.9409C33.6713 63.1443 33.9217 63.7548 34.1722 64.2713C34.72 65.4452 34.7669 66.0869 34.2974 66.0869C33.9843 66.0869 33.9687 66.1495 34.0469 67.6209C34.0783 68.4504 34.1722 69.3113 34.2348 69.5148C34.36 69.8748 34.3287 69.8904 33.8591 69.7965C33.4365 69.7026 33.3269 69.7339 33.2643 70C33.1548 70.3913 32.873 70.3913 32.513 70ZM33.1861 67.3704C33.0922 65.6643 32.513 64.4122 31.4487 63.6295C30.3061 62.7687 30.2122 62.8939 30.6974 64.4904C31.4487 66.9165 32.4504 68.7478 33.0139 68.7478C33.233 68.7478 33.2487 68.56 33.1861 67.3704ZM29.9304 67.5426C29.9304 67.4956 29.6487 66.9322 29.3043 66.3061C28.96 65.68 28.5374 64.7722 28.3496 64.3026C27.8956 63.0661 27.4887 62.8 26.08 62.8C25.0469 62.8 24.9217 62.7687 24.9217 62.5026C24.9217 62.1269 25.2035 62.0174 26.44 61.9078C26.9878 61.8609 27.4261 61.7982 27.4261 61.7669C27.4261 61.7513 27.2539 61.0782 27.0348 60.2956C26.6435 58.8087 26.3617 58.2295 25.7983 57.76C25.4226 57.4469 23.9983 56.9304 23.873 57.0713C23.7322 57.2122 24.1078 60.28 24.4522 61.6261C24.6243 62.3148 25.0626 63.473 25.4383 64.2087C26.0487 65.3826 26.2522 65.633 27.1756 66.2904C28.3965 67.1513 29.9304 67.8556 29.9304 67.5426Z" fill="black"/>
<path d="M109.318 47.0382C109.224 46.8817 109.083 46.4591 108.99 46.0991C108.864 45.6452 108.723 45.4261 108.551 45.4261C108.395 45.4261 108.05 45.2069 107.769 44.9252L107.268 44.44L107.158 45.0817C107.096 45.4417 107.017 45.7391 106.955 45.7391C106.908 45.7391 106.673 45.3635 106.423 44.9095C106.188 44.4713 105.39 43.2504 104.67 42.2174C103.934 41.1843 103.339 40.2921 103.339 40.2295C103.339 40.1513 103.59 40.1043 103.887 40.1043C104.31 40.1043 104.607 39.9478 105.217 39.4C106.031 38.68 106.219 38.5861 106.391 38.8521C106.438 38.9461 106.626 39.0087 106.798 39.0087C107.017 39.0087 107.096 39.1182 107.096 39.4469C107.096 39.76 107.315 40.0887 107.863 40.6365C108.426 41.1843 108.677 41.5913 108.817 42.1235C108.911 42.5148 109.068 42.9687 109.146 43.1095C109.224 43.2661 109.287 43.4852 109.287 43.5948C109.287 43.72 109.428 43.9704 109.6 44.1739C109.772 44.3774 109.96 44.7217 110.007 44.9408C110.038 45.16 110.132 45.52 110.21 45.7391C110.477 46.6 109.694 47.7426 109.318 47.0382Z" fill="black"/>
<path d="M41.1843 46.5217C40.7148 46.2869 40.073 45.8487 39.7756 45.5669C39.3061 45.113 39.1183 45.0504 38.2261 44.9878C36.5826 44.8782 36.8174 44.6904 38.727 44.5808C39.6974 44.5182 40.9339 44.44 41.4504 44.393L42.4052 44.2991L42.1235 43.3287C41.967 42.8121 41.7165 41.5287 41.5756 40.4956C41.247 38.273 41.0904 33.1235 41.3409 33.2956C41.4348 33.3426 41.5287 33.5148 41.5287 33.6556C41.5443 33.7965 41.607 33.5774 41.6852 33.1548C41.7478 32.7321 41.9043 32.3252 42.0139 32.2626C42.1704 32.153 42.233 32.7791 42.327 35.4556C42.4365 39.4782 42.7183 41.4504 43.4226 43.4382L43.7513 44.3461L45.8487 44.3148C47.007 44.3148 47.993 44.3461 48.0556 44.4087C48.3217 44.6591 47.727 45.0504 46.6156 45.3478C45.7704 45.5669 45.3009 45.7861 45.0191 46.0991C44.5809 46.5843 43.9235 46.8974 43.6104 46.7721C43.4852 46.7252 43.36 46.7565 43.313 46.8348C43.1252 47.1321 42.0452 46.9756 41.1843 46.5217Z" fill="black"/>
<path d="M96.6087 77.3253C96.6087 77.2314 96.7183 77.0123 96.8748 76.8558C97.0157 76.6992 97.0939 76.5427 97.0626 76.4958C97.0157 76.4645 96.4209 76.5271 95.7478 76.6523C93.3531 77.0905 90.6609 77.1218 88.3131 76.7462C85.5583 76.2923 85.2139 76.1984 83.4922 75.3688C81.5826 74.461 80.3148 73.6314 79.407 72.7079C76.3861 69.5931 75.1496 67.2297 74.3044 62.9566C74.0696 61.7984 73.8191 60.7184 73.7409 60.5775C73.5374 60.1705 73.5687 60.1079 73.9444 60.1705C74.2887 60.2175 74.4139 60.5305 75.0087 62.941C75.2278 63.8018 75.4783 63.9114 75.4783 63.1445C75.4783 62.7845 75.5565 62.4871 75.6348 62.4871C75.7287 62.4871 75.7913 62.8001 75.7913 63.1758C75.7913 64.0053 76.5896 66.7601 77.1531 67.8714C78.2174 69.9688 80.847 72.8175 82.6313 73.8192C83.8991 74.5236 85.5896 75.181 87.2644 75.6349C88.3757 75.9323 88.7826 75.9636 91.5687 75.901C94.84 75.8227 97.1096 75.4627 97.6887 74.9462C97.9704 74.6958 98.7218 74.6175 99.1757 74.7897C99.6139 74.9618 99.4731 75.6975 98.8939 76.2297C98.5965 76.4958 98.3304 76.7931 98.2835 76.9184C98.2209 77.0749 98.1583 77.0749 98.0331 76.8871C97.8922 76.6992 97.8296 76.6992 97.5165 76.981C97.0626 77.3879 96.6087 77.5601 96.6087 77.3253Z" fill="#2C1D17"/>
<path d="M44.5653 76.0262C43.8766 75.8853 42.4366 75.5566 41.3879 75.2905C39.807 74.8992 39.4313 74.8366 39.3218 75.0088C39.2122 75.181 39.1339 75.181 38.9618 75.0401C38.8522 74.9305 38.7113 74.8992 38.6644 74.9462C38.6174 74.9931 38.5235 74.821 38.4609 74.5862C38.4139 74.3514 38.1792 73.9601 37.96 73.7253C37.5531 73.3027 37.5218 72.7705 37.9131 72.6923C38.0383 72.6766 38.4139 72.8958 38.727 73.1775C39.1966 73.5845 39.6974 73.8192 41.0748 74.1949C44.7218 75.2123 48.1339 75.4001 51.3739 74.774C52.8609 74.4923 55.0209 73.5375 56.367 72.5671C57.5879 71.6905 59.4348 69.781 60.2018 68.5914C60.8592 67.5897 62.3305 64.6471 62.3305 64.3653C62.3305 64.2714 62.4087 64.2088 62.487 64.2088C62.5809 64.2088 62.6435 64.3184 62.6435 64.4592C62.6435 64.6314 62.7374 64.6784 62.9566 64.6001C63.16 64.5375 63.2696 64.5688 63.2696 64.7097C63.2696 64.9601 62.2366 67.0888 61.5948 68.1375C61.36 68.5445 60.9531 69.2018 60.7026 69.6245C59.6853 71.2992 57.4 73.381 55.4905 74.3671C54.4261 74.9149 52.4853 75.5723 51.0609 75.8853C49.4487 76.2297 46.0366 76.2923 44.5653 76.0262Z" fill="#2C1D17"/>
<path d="M70.1722 129.228C69.9061 129.009 69.4835 128.555 69.2174 128.226C68.56 127.381 68.4817 126.27 68.9043 123.546C69.0765 122.419 69.1704 121.292 69.1235 121.057C68.9826 120.431 68.3409 118.678 68.0591 118.115C67.5113 117.035 66.8695 114.89 66.8695 114.123C66.8695 113.278 66.8069 113.372 69.0139 110.633C69.5617 109.96 70 109.334 70 109.24C70 109.13 69.8278 108.786 69.6087 108.473C69.1078 107.737 69.1235 107.643 69.6869 107.628C70.0939 107.612 70.2348 107.706 70.5791 108.301L70.9861 108.99L70.7043 109.913C70.5009 110.586 70.1565 111.15 69.3426 112.12C68.7322 112.84 68.1374 113.654 67.9965 113.936C67.6522 114.656 67.7617 114.984 69.64 118.976C70.3443 120.463 70.4696 121.965 70.0939 124.141C69.7809 125.878 69.8904 127.271 70.36 128.054L70.6887 128.586L71.3148 127.882C72.7235 126.332 72.9426 125.863 73.5843 122.904C73.7409 122.169 74.0069 121.104 74.1635 120.541L74.4452 119.523L74.0226 118.96C73.7878 118.663 73.6 118.365 73.6 118.318C73.6 118.256 73.2869 117.755 72.8956 117.176C71.9565 115.767 71.6591 114.828 71.8 113.717C71.9096 112.856 71.9409 112.809 73.6939 111.024C75.04 109.663 75.5252 109.271 75.6191 109.428C75.6974 109.537 75.8382 109.584 75.9322 109.537C76.0261 109.475 76.1043 109.506 76.1043 109.6C76.1043 109.976 75.6974 110.523 74.3043 111.948C73.5217 112.777 72.8174 113.638 72.7548 113.873C72.6765 114.217 72.8017 114.593 73.3026 115.595C73.6626 116.299 74.1165 117.097 74.3043 117.348C75.4313 118.929 75.5409 119.602 75.0243 121.746C74.6487 123.343 74.4922 124.626 74.68 124.626C74.9461 124.626 74.6643 125.252 74.2261 125.612C73.9913 125.8 73.5843 126.285 73.3182 126.677C73.0522 127.068 72.7391 127.475 72.5982 127.584C72.4574 127.694 72.3791 127.835 72.4104 127.897C72.5043 128.038 71.033 129.635 70.8139 129.635C70.72 129.635 70.4382 129.463 70.1722 129.228Z" fill="#172039"/>
<path d="M99.2696 75.3374C99.2696 75.0243 98.9878 74.8522 98.4713 74.8522C98.1583 74.8522 98.0644 74.6174 98.3304 74.4609C98.6435 74.273 99.2539 73.1774 100.96 69.7339C102.885 65.8991 103.496 64.6 103.981 63.3948C104.153 62.9409 104.357 62.5026 104.435 62.4087C104.497 62.3304 105.061 61.2661 105.687 60.0609C106.313 58.8556 106.939 57.6974 107.096 57.4783C107.237 57.2591 107.409 56.9461 107.471 56.7739C107.565 56.5235 108.708 54.4887 108.927 54.2069C109.005 54.0817 109.428 54.7235 109.443 54.9739C109.443 55.1148 109.271 55.4748 109.052 55.7878C108.833 56.1165 108.348 56.9617 107.972 57.6661C107.612 58.3861 106.97 59.5913 106.579 60.3583C105.75 61.9235 105.687 62.1426 106.188 61.4539C106.798 60.6243 108.551 58.7304 108.677 58.7304C108.755 58.7304 108.817 58.84 108.817 58.9652C108.817 59.2469 108.896 59.2469 109.303 59.0435C109.678 58.84 109.678 58.9809 109.35 60.7965C109.115 62.08 109.083 62.1583 108.614 62.3461C107.863 62.6435 107.252 63.1443 107.252 63.4417C107.252 63.5983 107.158 63.7548 107.064 63.7861C106.908 63.8487 106.923 63.9113 107.096 64.0365C107.362 64.2243 107.44 64.1304 105.937 65.2261C105.468 65.5704 105.045 65.993 104.998 66.1652C104.951 66.3374 104.904 67.1983 104.904 68.0904C104.904 69.1704 104.826 69.8904 104.67 70.2661C104.419 70.8609 104.466 71.1269 104.779 70.8139C105.061 70.5322 105.311 70.5948 105.327 70.9391C105.374 71.4243 104.513 72.0504 103.965 71.9409C103.543 71.8469 103.511 71.8783 103.543 72.2696C103.574 72.6452 103.496 72.7235 102.838 72.9426C102.337 73.0991 102.087 73.2713 102.087 73.4278C102.087 73.5843 102.009 73.7722 101.899 73.8817C101.758 74.0226 101.774 74.0696 101.977 74.0696C102.557 74.0696 102.181 74.3826 100.897 74.993C99.3791 75.7287 99.2696 75.7443 99.2696 75.3374ZM102.416 71.5496C103.308 70.9861 103.652 70.2191 103.762 68.5756C103.903 66.5409 103.699 66.6817 102.228 69.6243C100.757 72.5826 100.757 72.6139 102.416 71.5496Z" fill="#3F281B"/>
<path d="M38.1635 74.9304C38.007 74.6331 37.7409 74.3513 37.5687 74.2887C36.52 73.96 31.6522 70.1722 31.6522 69.687C31.6522 69.3739 32.153 69.4209 32.5757 69.7652C33.0296 70.1565 33.0296 70.1565 33.1078 69.8278C33.1861 69.5461 33.28 69.4991 33.6713 69.5774C34.1252 69.6713 34.1409 69.6557 34 69.28C33.9061 69.0609 33.8435 68.0904 33.8435 67.1357C33.8591 65.6487 33.8904 65.4296 34.0626 65.6487C34.313 65.9931 34.4696 66.0087 34.4696 65.6957C34.4696 65.5704 34.5322 65.4609 34.6104 65.4609C34.767 65.4609 35.6278 67.0417 35.9409 67.9183C36.5983 69.687 37.4904 71.4087 38.4139 72.6922C38.6487 73.0209 38.4765 73.24 38.1635 72.9896C37.7096 72.6139 37.7252 73.1617 38.1791 73.647C38.5235 74.0226 38.6487 74.32 38.68 74.8209C38.727 75.6191 38.5548 75.6661 38.1635 74.9304Z" fill="#5E4333"/>
<path d="M55.0679 115.892C55.0053 115.736 55.0835 115.298 55.2087 114.922C55.5061 114.077 55.5061 113.576 55.2087 112.731C54.8957 111.823 54.9113 109.397 55.24 107.675C55.6157 105.718 55.4435 105.061 53.9879 102.651C53.3461 101.618 52.5479 100.271 52.2192 99.661C51.8905 99.0662 51.327 98.0958 50.9513 97.5166C50.5757 96.9532 50.2783 96.3114 50.2783 96.0923C50.2783 95.7323 50.3253 95.7166 51.7183 95.6071C54.1757 95.4349 58.5896 95.4975 60.4522 95.7323C62.6279 96.014 64.1618 96.5149 65.9461 97.548C66.6974 97.9862 67.3861 98.3306 67.48 98.3306C67.574 98.3306 67.7305 98.5184 67.8087 98.7375C68.0122 99.2697 68.0122 101.711 67.7931 102.118C67.6209 102.447 64.9287 104.263 63.5044 105.014C62.6592 105.452 62.3774 105.844 62.9253 105.844C63.1913 105.828 64.0209 105.405 66.8383 103.824C67.6522 103.371 68.4035 103.042 68.5287 103.089C68.7009 103.151 68.7479 103.558 68.7479 105.014C68.7479 106.673 68.7166 106.892 68.3879 107.393C68.1844 107.706 67.7148 108.442 67.3235 109.037C65.5861 111.791 62.4087 113.873 57.5566 115.454C55.24 116.205 55.1618 116.221 55.0679 115.892Z" fill="#B24117"/>
<path d="M79.6575 109.757C79.1253 109.6 76.3079 107.738 75.8696 107.268C75.6192 106.971 75.5722 106.72 75.6035 105.64C75.6035 104.936 75.7131 103.934 75.8227 103.418L76.0262 102.478H77.8262C78.8122 102.494 79.9079 102.525 80.2522 102.557C80.7375 102.619 80.8783 102.588 80.8783 102.4C80.8783 102.04 79.3444 101.602 77.7009 101.508L76.2296 101.414L76.2922 98.7062C76.3392 96.2645 76.3705 95.9671 76.6679 95.5601C77.3409 94.6366 81.8175 91.6314 83.3044 91.0836C83.9305 90.8488 87.734 90.254 90.4575 89.9566C91.5688 89.8314 92.0696 89.941 92.054 90.3166C92.054 90.4575 91.8662 90.9427 91.6314 91.3966C91.3966 91.8349 90.6609 93.2906 89.9879 94.6523C89.3305 95.9984 88.5166 97.501 88.1722 97.9862C86.9983 99.7393 86.8105 100.334 87.3896 100.6C87.5775 100.694 87.8592 101.117 88.047 101.539C88.2192 101.978 88.5948 102.682 88.8609 103.104C89.3618 103.887 91.1305 107.284 91.1305 107.44C91.1305 107.691 86.1062 109.131 85.2609 109.131C85.0575 109.131 84.2279 109.303 83.3983 109.522C81.8957 109.913 80.487 110.007 79.6575 109.757Z" fill="#B24117"/>
<path d="M70.8609 106.611C70.5166 106.344 70.1879 106.078 70.1253 106.016C69.9375 105.844 69.0922 101.664 68.8888 99.8801L68.7009 98.2366L69.327 97.2975C69.687 96.781 70.0783 96.2645 70.2192 96.1549C70.5322 95.8888 70.5479 95.5132 70.2348 95.5132C69.9844 95.5132 69.9062 95.2627 70.1253 95.1532C70.1879 95.1062 70.767 95.0279 71.4088 94.981C72.5044 94.8871 72.567 94.8871 72.2696 95.1219C72.0975 95.2627 71.7688 95.4193 71.534 95.4662L71.1114 95.5445L71.5027 96.061C72.0348 96.7653 72.6453 97.1566 72.8644 96.9375C72.9896 96.8123 72.927 96.6558 72.6609 96.374L72.3009 95.9984L72.7548 95.8262C73.8818 95.3879 74.0383 95.4193 74.8679 96.2332L75.6348 96.9845V98.3306C75.6348 99.8175 75.5253 100.569 74.9305 103.136C74.3514 105.656 73.7409 106.548 72.3166 106.845C72.0975 106.892 71.8157 106.971 71.6905 107.002C71.5809 107.049 71.2053 106.861 70.8609 106.611Z" fill="#B24117"/>
<path d="M104.278 70.9547C104.278 70.7982 104.388 70.4069 104.513 70.1095C104.67 69.7339 104.748 68.9982 104.748 67.9339C104.748 67.0417 104.795 66.1808 104.842 66.0087C104.904 65.8365 105.39 65.3513 105.953 64.9443C107.518 63.7704 109.021 63.1913 108.739 63.8643C108.676 64.0052 108.379 64.8191 108.082 65.68C107.456 67.5113 107.299 67.8243 106.219 69.4521C105.28 70.8921 104.278 71.6591 104.278 70.9547Z" fill="#B56D3F"/>
<path d="M107.424 69.4991C107.534 69.2956 107.878 68.7478 108.191 68.2782C108.504 67.8087 109.099 66.8226 109.49 66.0869C110.179 64.8034 110.915 63.8487 111.275 63.7234C111.416 63.6765 111.416 63.4887 111.29 63.0191C111.15 62.5339 111.165 62.1426 111.322 61.3756C111.525 60.4991 111.635 60.28 112.339 59.6382C112.762 59.2156 113.169 58.8869 113.231 58.8869C113.435 58.8869 113.56 60.0139 113.466 61.1408C113.263 63.8174 110.852 67.6365 108.285 69.3426C107.377 69.9374 107.174 69.9687 107.424 69.4991Z" fill="#B56D3F"/>
<path d="M32.56 68.7634C31.9965 68.3252 31.2609 66.8382 30.6348 64.8974C30.3374 63.9739 30.0869 63.16 30.0869 63.0817C30.0869 63.0191 30.2748 62.9565 30.4939 62.9565C31.1982 62.9565 32.3409 63.9582 32.8417 65.0226C33.2487 65.8678 33.2956 66.1495 33.2956 67.4643C33.2956 69.0765 33.2017 69.2643 32.56 68.7634Z" fill="#B56D3F"/>
<path d="M29.0539 67.5896C28.5217 67.3861 27.6139 66.8696 27.0348 66.447C26.0956 65.7896 25.8922 65.5391 25.2817 64.3652C24.9061 63.6296 24.4678 62.4713 24.2956 61.7826C23.8887 60.2017 23.56 57.0557 23.7635 56.8522C23.8574 56.7583 24.2174 56.8209 24.7496 57.0243C25.7513 57.4 26.2209 57.7287 26.5652 58.3078C26.8156 58.7304 27.5826 61.3443 27.5826 61.767C27.5826 61.9078 27.2539 62.0017 26.5965 62.0643C24.7339 62.2365 24.4678 62.6435 26.2365 62.6435C27.6609 62.6435 28.0522 62.9096 28.5217 64.1461C28.6939 64.6313 29.1948 65.6643 29.6174 66.447C30.0556 67.2139 30.4 67.8713 30.4 67.9026C30.4 68.0435 29.9617 67.9339 29.0539 67.5896Z" fill="#B56D3F"/>
<path d="M31.8087 62.1582C31.1669 61.2973 30.4 60.4051 30.1182 60.186C29.8208 59.9669 29.4921 59.5599 29.3826 59.2938C29.1478 58.7147 28.913 56.3512 29.0539 55.9756C29.1478 55.7408 29.1791 55.7408 29.4608 55.9912C29.6487 56.1477 29.7739 56.1947 29.7739 56.1008C29.7739 55.6312 30.0869 56.0225 30.76 57.306C31.4643 58.6208 31.6834 59.3408 31.3391 59.1217C31.0417 58.9338 31.1826 59.3408 32.1061 61.266C33.5617 64.3495 33.5304 64.4747 31.8087 62.1582Z" fill="#A17358"/>
<path d="M27.2696 44.44C27.2696 41.92 27.473 40.3861 28.0678 38.5391C28.5687 36.9896 28.9444 36.1913 28.7565 37.0522C28.4591 38.3983 28.3496 39.5096 28.2557 42.2644C28.1774 44.5652 28.0991 45.4104 27.9113 45.7861C27.3948 46.7878 27.2696 46.5217 27.2696 44.44Z" fill="#A17358"/>
<path d="M52.0782 43.673C51.4678 42.3425 50.2782 39.2434 50.2782 38.9304C50.2782 38.6956 50.3095 38.6799 50.5287 38.8677C50.7791 39.0712 52.36 41.2938 53.0174 42.3738C53.1895 42.6399 53.5652 43.1408 53.8469 43.4538C54.1287 43.7825 54.3321 44.1269 54.3008 44.2208C54.2695 44.3304 53.8469 44.4243 53.3617 44.4556L52.4695 44.5025L52.0782 43.673Z" fill="#A17358"/>
<path d="M67.026 93.8696C65.6956 93.4783 61.9703 91.9288 61.7356 91.6783C61.6103 91.5375 61.7043 91.5688 63.8956 92.3044C66.2434 93.1183 67.339 93.3218 69.3425 93.3218C71.5338 93.3218 72.9112 93.1183 74.6643 92.5235C75.3999 92.2731 76.0886 92.0696 76.1669 92.0696C76.4486 92.0853 75.1651 93.134 74.4764 93.4627C74.1164 93.6348 73.3338 93.854 72.739 93.9322C71.1895 94.167 67.8712 94.1201 67.026 93.8696Z" fill="#CE9A7D"/>
<path d="M100.678 72.4731C100.678 72.3635 101.336 71.0018 102.118 69.4209C103.417 66.8383 103.589 66.5722 103.777 66.8227C103.934 67.0262 103.965 67.4801 103.918 68.5131C103.824 70.3757 103.511 71.1114 102.572 71.7062C101.586 72.3322 100.678 72.6922 100.678 72.4731Z" fill="#CE9A7D"/>
<path d="M105.061 63.0349C105.061 62.8157 108.144 56.8053 108.849 55.6627C109.052 55.3183 109.287 54.9114 109.381 54.7392C109.694 54.1757 109.835 54.4731 109.944 55.8662C110.007 56.8679 109.976 57.3375 109.835 57.5566C109.725 57.7288 108.943 58.6522 108.082 59.607C107.221 60.5618 106.297 61.6575 106.031 62.0488C105.562 62.7375 105.061 63.254 105.061 63.0349Z" fill="#CE9A7D"/>
<path d="M70.4695 56.7427C69.4208 56.6018 68.1373 56.5548 66.9165 56.6018C64.8191 56.6801 64.8817 56.7114 65.1478 55.7566C65.3356 55.0992 65.1165 54.8175 64.7878 55.2714C64.5686 55.6001 64.5686 55.6001 64.4591 55.1148C64.3182 54.3792 64.3495 53.2835 64.506 53.174C64.5843 53.127 65.0382 53.3148 65.4921 53.5809C67.2921 54.6609 71.706 56.0696 72.2225 55.7409C72.5043 55.5688 72.2382 55.1462 71.5808 54.7392C67.746 52.3601 64.9912 50.0122 63.1443 47.5548C62.5025 46.6783 61.8138 45.7705 61.6104 45.5357C61.4069 45.2853 61.2347 44.9722 61.2347 44.8314C61.2347 44.6592 61.8608 45.1757 62.8469 46.1618C65.0695 48.3688 66.0869 49.2766 67.9808 50.7166C68.8417 51.374 71.6121 52.9862 72.9425 53.6279L73.5999 53.9409V55.0835C73.5999 55.9914 73.553 56.2262 73.3652 56.2262C73.2399 56.2262 73.1304 56.1635 73.1304 56.0696C73.1304 55.9914 73.0521 55.9131 72.9582 55.9131C72.8486 55.9131 72.833 56.0227 72.8956 56.1948C73.2086 56.9462 73.193 57.0088 72.6452 56.9931C72.3478 56.9775 71.3773 56.8679 70.4695 56.7427Z" fill="#CE9A7D"/>
<path d="M82.4434 50.7322C80.5338 49.1044 79.3756 47.9305 79.4851 47.7583C79.626 47.5235 82.4434 47.6644 82.7408 47.9148C82.8504 48.0088 83.0695 48.7131 83.2104 49.4644C83.3669 50.2157 83.5234 50.9827 83.5704 51.1862C83.6956 51.7027 83.4921 51.6088 82.4434 50.7322Z" fill="#CE9A7D"/>
<path d="M106.329 46.5531C105.875 46.334 105.624 45.9114 104.435 43.5479C103.511 41.7166 102.697 40.3235 101.962 39.3688C100.083 36.9114 100.021 36.567 101.789 38.3044C103.276 39.7914 105.217 42.4366 107.064 45.5514C107.346 46.0053 107.565 46.4905 107.565 46.6157C107.565 46.9131 107.002 46.8818 106.329 46.5531Z" fill="#CE9A7D"/>
<path d="M31.6991 45.0348C31.6522 44.8939 31.6522 44.5652 31.6991 44.2835C31.9183 43.1096 32.7635 39.5878 32.8887 39.3374C32.967 39.1965 33.1548 38.6017 33.28 38.0226C33.5148 37.0052 34.1096 35.6278 34.2504 35.753C34.2817 35.8 34.2035 36.4261 34.047 37.1461C33.8748 38.0226 33.7652 39.5565 33.7339 41.7635L33.6713 45.0661L32.9513 45.1756C31.9339 45.3165 31.8087 45.3009 31.6991 45.0348Z" fill="#CE9A7D"/>
<path d="M88.3912 45.0349C88.3129 45.0036 87.6243 44.8001 86.8886 44.5809C85.386 44.127 85.4016 44.1583 84.7912 42.1392C84.5877 41.4975 84.2121 40.4018 83.946 39.7288C83.6799 39.0401 83.4921 38.4609 83.5234 38.4296C83.5547 38.3983 84.1808 38.9462 84.9008 39.6662C87.139 41.8888 88.4695 42.9844 90.6295 44.4088C91.0677 44.7062 91.4434 44.9879 91.4434 45.0349C91.4434 45.1131 88.6573 45.1288 88.3912 45.0349Z" fill="#CE9A7D"/>
<path d="M76.7147 44.487C76.4017 44.3148 75.8695 43.8609 75.5408 43.4383C74.7269 42.4522 73.3808 40.4331 73.4591 40.3548C73.4904 40.3235 74.3669 40.8244 75.3999 41.4662C76.433 42.1079 77.7321 42.8592 78.2956 43.1096C78.8591 43.3601 79.5947 43.7044 79.9391 43.8609C80.2834 44.0331 80.753 44.2366 81.0034 44.3148C81.9112 44.6592 81.426 44.8001 79.3599 44.7844C77.6695 44.7688 77.1686 44.7062 76.7147 44.487Z" fill="#CE9A7D"/>
<path d="M70.7825 114.593C70.313 114.515 69.4208 114.374 68.7947 114.28L67.6678 114.092L67.8869 113.685C67.9965 113.466 68.5912 112.684 69.2017 111.948C69.8121 111.212 70.313 110.571 70.313 110.508C70.313 110.445 70.3912 110.211 70.4695 109.976C70.626 109.584 70.6573 109.569 70.8295 109.835C71.0486 110.117 71.5651 110.07 74.9304 109.506L75.5565 109.397L74.6956 110.32C74.226 110.821 73.4434 111.635 72.9425 112.104C72.1286 112.903 72.0504 113.028 71.9565 113.873C71.8938 114.358 71.7999 114.75 71.7373 114.75C71.6904 114.734 71.2521 114.671 70.7825 114.593Z" fill="#7BA0EC"/>
<path d="M72.5826 114.609C72.5199 114.515 72.5199 114.186 72.5826 113.873C72.6608 113.451 73.0365 112.95 74.1321 111.807C75.6034 110.289 76.1043 109.569 76.1043 108.974C76.1043 108.802 76.1356 108.661 76.1982 108.661C76.2452 108.661 76.6991 108.943 77.2156 109.303C77.7321 109.647 78.5304 110.101 78.9999 110.304C80.0173 110.758 80.2208 111.009 79.5478 111.009C79.2347 111.009 78.7339 111.259 78.0139 111.76C76.5113 112.856 74.8991 113.748 73.913 114.061C73.4434 114.217 72.9739 114.437 72.8643 114.562C72.7391 114.718 72.6608 114.734 72.5826 114.609Z" fill="#7BA0EC"/>
<path d="M67.1043 92.2887C66.3061 92.1635 64.9756 91.7566 63.5826 91.2087C62.847 90.927 61.4383 90.3948 60.4522 90.0348C59.4661 89.6592 58.0887 89.0957 57.4 88.7827C56.7113 88.454 55.553 87.9374 54.8174 87.6087C53.393 86.9827 50.4661 85.5427 48.9635 84.7131C48.0869 84.2122 46.8504 83.3983 45.1913 82.1774C44.2835 81.5201 41.6696 78.7027 40.4017 77.0279C39.6191 75.9948 38.8678 74.5392 39.1026 74.5392C39.1496 74.5392 40.1513 74.7896 41.3252 75.087C44.7687 75.9635 46.193 76.1514 48.1496 76.0261C49.0887 75.9792 50.2313 75.854 50.7009 75.7757C51.9217 75.5409 54.2852 74.7427 55.3339 74.2105C57.2435 73.2244 59.5287 71.1427 60.5461 69.4679C61.7043 67.527 61.8922 67.1983 62.3617 66.3218C63.0974 64.8974 63.5513 63.5514 63.8174 62.08C64.2243 59.7009 64.6626 59.4348 68.3722 59.247C71.1426 59.1061 73.1304 59.4661 73.7565 60.2174C73.8817 60.3583 74.1948 61.5479 74.4765 62.847C75.3843 67.2609 76.5269 69.4209 79.5635 72.5514C80.4713 73.4748 81.7235 74.3044 83.6487 75.2279C85.2765 76.0105 85.7148 76.1357 88.4226 76.574C91.1461 77.0279 92.32 76.9809 96.7339 76.3235C97.1409 76.2609 97.3913 76.2766 97.3913 76.3861C97.3913 76.6835 95.3878 79.1879 94.0887 80.5027C92.6017 82.0209 91.9287 82.5687 90.0348 83.8209C89.2991 84.3061 88.4226 84.9009 88.0783 85.1357C86.7791 86.0279 83.9304 87.6401 81.0348 89.08C78.5774 90.3009 74.7896 91.7722 73.3183 92.0696C72.5043 92.2418 67.8556 92.3983 67.1043 92.2887Z" fill="#E8B69A"/>
<path d="M98.2991 77.8105C97.7826 77.5131 98.0017 76.6992 98.7843 75.9948C99.1443 75.6661 99.9269 75.2279 102.557 73.9131C102.948 73.7253 103.496 73.3496 103.762 73.0835C104.325 72.567 105.296 71.9566 106.595 71.3305C107.8 70.7514 108.896 70.0314 110.117 68.9827C111.337 67.9653 112.965 65.6174 113.732 63.8174C114.17 62.7844 114.202 62.5966 114.217 60.5774C114.217 59.4035 114.264 58.4018 114.327 58.3392C114.39 58.2766 114.797 58.3548 115.235 58.4957C116.44 58.9027 116.565 58.5896 115.485 57.8696C114.499 57.2122 114.343 57.0087 114.202 56.0853C114.108 55.4905 114.03 55.4122 113.325 55.0992C112.433 54.7079 112.261 54.4574 112.261 53.4714V52.7357L113.654 52.814C115.235 52.9079 115.704 53.127 116.534 54.0974C117.301 55.0209 117.504 55.4905 117.896 57.2279C118.146 58.3548 118.224 59.0592 118.162 59.7322C117.927 62.2209 117.066 64.9287 115.751 67.2453C114.437 69.5618 111.259 72.8331 109.287 73.8818C108.99 74.054 108.176 74.4922 107.487 74.8835C104.763 76.4174 103.871 76.8087 101.664 77.4974C100.068 77.9827 98.8 78.1079 98.2991 77.8105Z" fill="#E8B69A"/>
<path d="M86.8261 75.7287C82.7409 74.5235 80.5026 73.0209 78.233 69.9374C77.1374 68.4661 76.6835 67.5427 76.1044 65.6018C75.4783 63.5357 75.3844 61.1409 75.8539 59.4974C76.12 58.5583 76.12 58.4331 75.9009 57.9948C75.76 57.7444 75.6035 56.9931 75.5409 56.3357L75.4313 55.1305H75.9635C76.6052 55.1461 77.8104 55.4122 80.0957 56.0383C82.7565 56.774 85.1357 57.0557 88.0783 56.9774C90.52 56.8992 91.1304 56.8053 91.1304 56.5235C91.1304 56.4453 90.4104 56.0383 89.5339 55.6157C87.9374 54.8487 85.9965 53.5966 85.4487 52.9705C85.1513 52.6574 85.167 52.2192 85.5896 48.5879L85.6678 47.9305L87.8122 48.0087C88.9861 48.0557 92.1009 48.1183 94.7304 48.1653C99.567 48.2592 101.242 48.4157 103.84 49.0261C104.513 49.1827 105.123 49.3705 105.233 49.4331C105.327 49.4957 105.765 50.2627 106.188 51.1548C106.767 52.3914 107.033 52.7827 107.268 52.7827C107.643 52.7827 107.659 52.3914 107.315 51.2174C106.877 49.7148 106.861 49.4957 107.205 49.4957C107.362 49.4957 107.831 49.7931 108.223 50.1687C108.849 50.7322 109.005 51.014 109.224 51.8279C109.537 53.1114 109.365 53.8627 108.332 55.6157C107.91 56.3357 107.565 56.9931 107.565 57.0557C107.565 57.134 107.44 57.3844 107.268 57.6035C107.111 57.8383 106.47 59.0122 105.843 60.2174C105.217 61.4227 104.654 62.487 104.591 62.5653C104.513 62.6592 104.31 63.0974 104.137 63.5514C103.48 65.2105 99.7861 72.7392 99.0504 73.8974C98.0174 75.5096 96.4522 75.9635 91.4435 76.0418C88.2817 76.0887 88 76.0731 86.8261 75.7287Z" fill="#E8B69A"/>
<path d="M35.9565 75.5566C34.1409 75.2435 31.4957 74.4453 30.087 73.7879C24.9687 71.44 20.8678 66.5722 19.6939 61.4383C18.9583 58.2922 19.193 55.7879 20.3983 53.9409C20.9461 53.0957 21.1339 52.9235 21.9948 52.5635C22.527 52.3444 23.2157 52.1566 23.513 52.1566C24.0296 52.1566 25.7513 52.6261 25.9391 52.814C25.9861 52.8609 25.72 52.9705 25.36 53.0644C24.9844 53.1583 24.4209 53.4557 24.0922 53.7218C23.56 54.1757 23.513 54.254 23.607 54.8331C23.6852 55.2714 23.6539 55.4592 23.4974 55.5061C23.3722 55.5374 22.8244 55.694 22.2765 55.8505C21.3061 56.1166 20.5391 56.5705 20.5391 56.8679C20.5391 57.1027 20.9148 57.0244 21.8539 56.6174C22.3391 56.3983 22.8087 56.2261 22.887 56.2261C22.9809 56.2261 23.0435 56.8835 23.0435 57.7757C23.0435 59.3879 23.4817 61.9861 23.9357 63.16C24.4678 64.5218 25.2817 65.7896 26.08 66.5253C27.113 67.4487 28.8661 68.4035 30.1339 68.6853C31.0104 68.9044 31.1983 69.0296 32.5757 70.36C33.9217 71.6592 36.9583 73.8974 37.7252 74.1322C38.007 74.2261 38.6957 75.2748 38.6957 75.6192C38.6957 75.8383 37.3965 75.8227 35.9565 75.5566Z" fill="#E8B69A"/>
<path d="M44.1739 75.0714C42.4835 74.8209 39.4 73.9757 38.9461 73.6783C38.6487 73.4592 38.5235 73.3027 37.6 71.8627C37.0991 71.08 36.2852 69.4053 35.8 68.1218C35.6904 67.8244 35.1739 66.7287 34.6417 65.6957C34.1252 64.647 33.5931 63.5044 33.4522 63.1287C33.327 62.7687 32.8887 61.8453 32.4661 61.1096C32.0591 60.3583 31.1357 58.5896 30.4313 57.1653C29.1635 54.6296 29.1478 54.5514 29.0539 53.174C28.9757 51.7027 29.1322 51.0453 29.4609 51.5305C29.5548 51.6557 29.727 52.1253 29.8522 52.5479C30.1652 53.5496 30.7444 54.5827 31.0104 54.5827C31.1826 54.5827 31.2139 53.9879 31.1983 51.4992C31.167 49.2609 31.2139 48.4 31.3548 48.3061C31.5426 48.1966 34.4696 47.9931 34.4696 48.1027C34.4696 48.4 35.2365 52.0157 35.3304 52.1566C35.5652 52.5479 35.7061 51.9061 35.8157 49.9809C35.9096 48.3844 35.9722 48.0557 36.207 47.9305C36.3635 47.8366 37.3809 47.774 38.4922 47.774C39.5878 47.774 42.327 47.6644 44.5652 47.5392C46.8035 47.414 48.8383 47.3044 49.0887 47.3044C49.48 47.3044 50.0435 47.8053 52.767 50.4974C55.96 53.6592 58.5896 56.1009 58.7148 55.9757C58.7461 55.9444 58.6522 55.7253 58.48 55.4905C58.3235 55.2557 57.9009 54.4887 57.5409 53.7844C57.1809 53.08 56.6017 52.094 56.2574 51.5931C55.4435 50.3879 54.0035 47.4922 54.1131 47.3044C54.1757 47.2105 54.6452 47.1479 55.1774 47.1479C56.367 47.1479 57.0557 47.4766 58.2609 48.6192C58.7304 49.0731 59.5287 49.7774 60.0452 50.2C60.5461 50.6227 61.1722 51.2487 61.407 51.5774C61.9704 52.3444 62.7844 54.8487 62.9096 56.1479C62.9878 57.0087 62.9565 57.134 62.5809 57.5879C62.08 58.167 62.08 58.2922 62.5026 58.6679C63.0035 59.1061 63.2696 59.8574 63.2696 60.7966C63.2696 62.7374 61.9704 66.2748 60.3583 68.7479C59.5913 69.9374 57.7444 71.847 56.5235 72.7235C55.1931 73.6783 53.0174 74.6487 51.5304 74.9305C49.6678 75.3061 46.0365 75.3687 44.1739 75.0714Z" fill="#E8B69A"/>
<path d="M102.228 46.1461C102.197 46.1148 101.132 46.0053 99.8644 45.8957C96.9844 45.6766 96.5617 45.5044 94.4957 43.7044C92.4922 41.9513 91.0209 40.3705 88.9078 37.7566C88.2504 36.927 85.7931 33.0296 85.8713 32.9357C85.9652 32.8574 86.967 33.3896 88.4696 34.3287C89.2052 34.7827 90.16 35.3618 90.5826 35.6279C91.7409 36.3479 92.8365 37.1148 93.6348 37.7566C94.0261 38.0696 94.5113 38.4296 94.7304 38.5705C96.7183 39.8227 103.23 46.2087 102.51 46.2087C102.4 46.2087 102.259 46.1774 102.228 46.1461Z" fill="#E8B69A"/>
<path d="M36.2539 44.7218C36.207 44.6122 36.3635 43.3601 36.5826 41.9514C36.9583 39.6348 37.6313 37.2087 38.7896 34.0001C38.9304 33.6087 39.1652 32.9357 39.3217 32.4818C39.4783 32.0279 39.9009 31.1201 40.2452 30.447C40.5896 29.774 41.153 28.6001 41.513 27.8331C42.1391 26.4401 42.4209 26.127 42.1391 27.0974C42.0609 27.3948 41.8417 28.6627 41.6696 29.9148C41.0904 33.9218 41.4035 40.1983 42.3113 43.2818C42.4835 43.8766 42.6087 44.3931 42.5617 44.4244C42.5304 44.4557 41.3878 44.5496 40.0104 44.6435C38.6487 44.7374 37.2557 44.8314 36.927 44.8627C36.52 44.9096 36.3009 44.8627 36.2539 44.7218Z" fill="#E8B69A"/>
<path d="M43.2661 43.5948C42.4522 41.3409 42.0765 37.8035 42.1861 33.3114C42.233 31.1201 42.3269 29.9305 42.4991 29.3827L42.7339 28.6001L42.7496 29.3983C42.7809 30.854 43.5478 35.2835 44.033 36.8018C44.5496 38.3983 45.88 41.4035 46.4748 42.2801C46.6783 42.5618 46.8348 42.8748 46.8348 42.9531C46.8348 43.0314 47.0069 43.3287 47.2261 43.6105C47.4452 43.8922 47.6174 44.2053 47.6174 44.2992C47.6174 44.4401 47.0226 44.487 45.5983 44.487H43.5791L43.2661 43.5948Z" fill="#E8B69A"/>
<path d="M77.513 40.0105C76.7774 39.5253 75.9948 38.9774 75.76 38.7896C75.5252 38.6174 74.8209 38.0696 74.1948 37.6C72.6922 36.4574 71.3148 35.0644 69.4991 32.8261C68.5756 31.6992 67.2609 29.4922 67.4017 29.3513C67.4487 29.2887 67.6209 29.367 67.7774 29.5079C67.9339 29.6644 68.1374 29.774 68.2313 29.774C68.8261 29.774 73.2869 33.4679 74.9461 35.3461C76.4174 37.0209 78.5148 39.6505 78.8904 40.3079C79.36 41.1061 79.0939 41.0592 77.513 40.0105Z" fill="#E8B69A"/>
<path d="M70.1252 121.605C70.0469 120.525 69.9374 120.087 69.4522 119.054C68.3252 116.69 68.1374 116.237 67.8869 115.563C67.7617 115.188 67.6522 114.671 67.6522 114.405C67.6522 113.951 67.6678 113.936 68.3252 114.045C68.6852 114.092 69.5774 114.217 70.313 114.311C71.7843 114.499 71.9722 114.593 72.113 115.219C72.16 115.454 72.4417 116.049 72.7391 116.534C73.0365 117.035 73.2869 117.567 73.2869 117.723C73.2869 118.099 72.9426 118.944 72.1756 120.431C71.8469 121.089 71.5652 121.699 71.5652 121.809C71.5652 122.2 70.9078 122.904 70.5635 122.904C70.2191 122.904 70.2035 122.826 70.1252 121.605Z" fill="#DCE5F3"/>
<path d="M76.0417 121.527C75.9948 121.449 75.9635 120.963 75.9635 120.447C75.9791 119.523 75.713 118.271 75.4469 117.974C75.3843 117.896 75.3217 117.645 75.3217 117.426C75.3217 116.878 75.1183 116.643 73.8661 115.861C73.1774 115.423 72.7861 115.063 72.7235 114.812C72.5983 114.327 72.7078 114.233 73.7565 113.904C74.7583 113.591 76.3548 112.699 77.873 111.603L78.9374 110.837L80.1426 110.883L81.3478 110.93L81.3948 112.652C81.4261 113.904 81.3635 114.64 81.1756 115.313C80.6278 117.317 78.8435 120.478 78.0609 120.838C77.8887 120.917 77.4191 121.136 77.0278 121.323C76.2139 121.699 76.1513 121.699 76.0417 121.527Z" fill="#DCE5F3"/>
<path d="M66.2435 96.6713C63.7861 95.4817 62.3931 95.0748 60.1704 94.887C59.0748 94.7774 58.0417 94.6209 57.8696 94.5113C57.6974 94.4017 57.3687 94.2609 57.1496 94.2139C56.8052 94.12 56.5235 93.6817 55.3652 91.3652C54.5983 89.8626 54.0191 88.5791 54.0661 88.5322C54.1287 88.4852 54.4731 88.6417 54.8487 88.8765C55.5844 89.3617 57.8226 90.6609 57.9009 90.6609C57.9165 90.6609 58.3861 90.927 58.9183 91.2557C60.1391 92.007 63.0974 93.353 65.3826 94.1983C65.9931 94.4174 66.7287 94.6991 67.0261 94.8087C67.3391 94.9339 68.1687 95.0278 68.9513 95.0435C69.7026 95.0435 70.3131 95.0748 70.3131 95.1217C70.3131 95.2939 68.0904 97.3913 67.9183 97.3913C67.8087 97.3757 67.0574 97.0626 66.2435 96.6713Z" fill="#DCE5F3"/>
<path d="M74.8209 95.0435C74.5391 94.9026 74.3043 94.6991 74.3043 94.6052C74.3043 94.4487 76.2922 92.9148 77.4817 92.1635C77.8574 91.9287 78.4678 91.5061 78.8591 91.2087C79.8922 90.4104 80.2052 90.52 79.9235 91.553C79.8295 91.913 78.8748 92.7426 77.2782 93.8696C76.793 94.2139 76.3078 94.6522 76.1826 94.8243C75.8852 95.2939 75.4156 95.3722 74.8209 95.0435Z" fill="#DCE5F3"/>
</svg>
